<svg xmlns="http://www.w3.org/2000/svg" xmlns:xlink="http://www.w3.org/1999/xlink" width="2920" height="1600">
	<!-- vector-effect="non-scaling-stroke"はedgeで対応していない-->
	<style type="text/css"><![CDATA[
	#mihara {
		--marker-url: url(#_mihara);
		color: rgb(0, 86, 56);
	}
	#shichi {
		--marker-url: url(#_shichi);
		color: limegreen;
	}
	#awaji {
		--marker-url: url(#_awaji);
		color: darkcyan;
	}

	polyline {
		fill: none;
	}
	use {
		fill: currentcolor;
	}
	.oddEl,
	.evenEl {
		marker-start: var(--marker-url);
		marker-mid:   var(--marker-url);
		marker-end:   var(--marker-url);
		stroke-width: 0;
	}
	.oddEl {
		transform: translateY(1600px)scale(1,-1);
	}
	.evenEl {
		transform: translateY(3600px)scale(1,-1);
	}
	.lineEl {
		transform: translateY(5600px)scale(1,-1);
		stroke-linecap: round;
		stroke-width: 24px;
		stroke: currentcolor;
		opacity: .9;
	}
	]]></style>

	<defs>
		<circle id="_marker" cx="1" cy="1" r="1"/>
	</defs>
	<view id="odd"   viewBox="-40    0 2920 1600"/>
	<view id="even"  viewBox="-40 2000 2920 1600"/>
	<view id="lines" viewBox="-40 4000 2920 1600"/>

	<g id="mihara">
		<marker id="_mihara" markerUnits="userSpaceOnUse" markerWidth="72" markerHeight="72" viewBox="0 0 2 2" refX="1" refY="1"><use xlink:href="#_marker"/></marker>
		<polyline class="oddEl"  points="0,600 80,950 160,1050 240,1050 320,1050 400,1050 480,1100 560,1400 640,1500 720,1440 800,1360 880,1350 960,1260 1040,1170 1120,1080 1200,1080 1280,990 1360,1080 1440,1215 1520,1298 1600,1363 1680,1229 1760,1120 1840,1040 1920,1040 2000,1000 2080,880 2160,720 2240,560 2320,160"/>
		<polyline class="evenEl" points="40,800 120,950 200,1050 280,1050 360,1050 440,1050 520,1250 600,1500 680,1480 760,1390 840,1350 920,1305 1000,1215 1080,1125 1160,1035 1240,1035 1320,990 1400,1215 1480,1233 1560,1363 1640,1298 1720,1165 1800,1040 1880,1000 1960,1000 2040,920 2120,800 2200,640 2280,360"/>
		<polyline class="lineEl" points="0,600 40,800 80,950 120,950 160,1050 200,1050 240,1050 280,1050 320,1050 360,1050 400,1050 440,1050 480,1100 520,1250 560,1400 600,1500 640,1500 680,1480 720,1440 760,1390 800,1360 840,1350 880,1350 920,1305 960,1260 1000,1215 1040,1170 1080,1125 1120,1080 1160,1035 1200,1080 1240,1035 1280,990 1320,990 1360,1080 1400,1215 1440,1215 1480,1233 1520,1298 1560,1363 1600,1363 1640,1298 1680,1229 1720,1165 1760,1120 1800,1040 1840,1040 1880,1000 1920,1040 1960,1000 2000,1000 2040,920 2080,880 2120,800 2160,720 2200,640 2240,560 2280,360 2320,160"/>
	</g>
	<g id="shichi">
		<marker id="_shichi" markerUnits="userSpaceOnUse" markerWidth="72" markerHeight="72" viewBox="0 0 2 2" refX="1" refY="1"><use xlink:href="#_marker"/></marker>
		<polyline class="oddEl"  points="1040,405 1120,495 1200,540 1280,540 1360,548 1440,548 1520,556 1600,564 1680,528 1760,480 1840,440 1920,400 2000,400 2080,400 2160,360 2240,360 2320,120"/>
		<polyline class="evenEl" points="1000,405 1080,450 1160,540 1240,540 1320,540 1400,548 1480,548 1560,564 1640,556 1720,500 1800,440 1880,400 1960,360 2040,400 2120,400 2200,360 2280,240"/>
		<polyline class="lineEl" points="1000,405 1040,405 1080,450 1120,495 1160,540 1200,540 1240,540 1280,540 1320,540 1360,548 1400,548 1440,548 1480,548 1520,556 1560,564 1600,564 1640,556 1680,528 1720,500 1760,480 1800,440 1840,440 1880,400 1920,400 1960,360 2000,400 2040,400 2080,400 2120,400 2160,360 2200,360 2240,360 2280,240 2320,120"/>
	</g>
	<g id="awaji">
		<marker id="_awaji"  markerUnits="userSpaceOnUse" markerWidth="72" markerHeight="72" viewBox="0 0 2 2" refX="1" refY="1"><use xlink:href="#_marker"/></marker>
		<polyline class="oddEl"  points="2320,560 2400,800 2480,840 2560,800 2640,720 2720,720 2800,640"/>
		<polyline class="evenEl" points="2280,280 2360,800 2440,800 2520,840 2600,760 2680,720 2760,680 2840,600"/>
		<polyline class="lineEl" points="2280,280 2320,560 2360,800 2400,800 2440,800 2480,840 2520,840 2560,800 2600,760 2640,720 2680,720 2720,720 2760,680 2800,640 2840,600"/>
	</g>
</svg>