<svg xmlns="http://www.w3.org/2000/svg" xmlns:xlink="http://www.w3.org/1999/xlink" width="1500" height="600">
	<style type="text/css"><![CDATA[
	#shinnyo {
		--marker-url: url(#_shinnyo);
		color: lightsalmon;
	}
	#kojo {
		--marker-url: url(#_kojo);
		color: gold;
	}
	#mihara {
		--marker-url: url(#_mihara);
		color: rgb(0, 86, 56);
	}
	#sumoto {
		--marker-url: url(#_sumoto);
		color: dodgerblue;
	}
	#shichi {
		--marker-url: url(#_shichi);
		color: limegreen;
	}
	#awaji {
		--marker-url: url(#_awaji);
		color: darkcyan;
	}

	.oddEl,
	.evenEl {
		marker-start: var(--marker-url);
		marker-mid:   var(--marker-url);
		marker-end:   var(--marker-url);
		fill: none;
	}
	.oddEl  {
		transform: translateY( 600px) scale(1, -1);
	}
	.evenEl {
		transform: translateY(1600px) scale(1, -1);
	}
	.areaEl {
		transform: translateY(2600px) scale(1, -1);
		fill: currentcolor;
		opacity: .4;
	}

	marker {
		fill: currentcolor;
	}
	polyline,
	polygon {
		stroke-width: 0;
	}
	]]></style>

	<defs>
		<!-- polygonをdefsからgに移動すると、chrome,edgeでmaskされない -->
		<polygon id="area_sumoto" points="465,19 480,25 495,53 510,83 525,75 540,64 555,45 570,58 585,44 600,95 615,78 630,90 645,69 660,57 675,116 690,131 705,139 720,139 735,129 750,240 765,132 780,133 795,127 810,125    825,0 450,0"/>
		<polygon id="area_shichi" points="825,129 840,128 855,125 870,163 885,168 900,172 915,169 930,172 945,165 960,169 975,165 990,171 1005,176 1020,168 1035,167 1050,181 1065,174 1080,179 1095,168 1110,152 1125,150 1140,156 1155,115 1170,154 1185,119 1200,115 1215,114 1230,152 1245,157 1260,118 1275,117 1290,119 1305,107 1320,110    1335,0 825,0 810,125"/>
		<mask id="miharaMask">
			<rect x="0" y="0" width="1500" height="600" fill="white"/>
			<use xlink:href="#area_sumoto"/>
			<use xlink:href="#area_shichi"/>
		</mask>
		<circle id="_marker" cx="1" cy="1" r="1"/>
	</defs>

	<view id="odd"   viewBox="-15    0 1500 600"/>
	<view id="even"  viewBox="-15 1000 1500 600"/>
	<view id="areas" viewBox="-15 2000 1500 600"/>

	<g id="shinnyo">
		<!-- markerの属性は、cssで設定できない -->
		<marker id="_shinnyo" markerUnits="userSpaceOnUse" markerWidth="27" markerHeight="27" viewBox="0 0 2 2" refX="1" refY="1"><use xlink:href="#_marker"/></marker>
		<polyline class="oddEl"  points="30,15 60,23 90,18 120,18 150,50 180,30 210,43 240,37 270,73 300,84 330,109"/>
		<polyline class="evenEl" points="15,22 45,15 75,33 105,17 135,41 165,47 195,36 225,61 255,63 285,63 315,94 345,107"/>
		<polygon  class="areaEl" points="15,22 30,15 45,15 60,23 75,33 90,18 105,17 120,18 135,41 150,50 165,47 180,30 195,36 210,43 225,61 240,37 255,63 270,73 285,63 300,84 315,94 330,109 345,107    360,0 0,0"/>
	</g>
	<g id="kojo">
		<marker id="_kojo" markerUnits="userSpaceOnUse" markerWidth="27" markerHeight="27" viewBox="0 0 2 2" refX="1" refY="1"><use xlink:href="#_marker"/></marker>
		<polyline class="oddEl"  points="360,110 390,24 420,178"/>
		<polyline class="evenEl" points="375,93 405,215"/>
		<polygon  class="areaEl" points="360,110 375,93 390,24 405,215 420,178    435,0 360,0 345,107"/>
	</g>
	<g id="mihara">
		<marker id="_mihara" markerUnits="userSpaceOnUse" markerWidth="27" markerHeight="27" viewBox="0 0 2 2" refX="1" refY="1"><use xlink:href="#_marker"/></marker>
		<polyline class="oddEl"  points="420,182 450,79 480,240 510,325 540,323 570,356 600,360 630,367 660,406 690,532 720,501 750,457 780,447 810,441 840,402 870,353 900,360 930,402 960,271 990,401 1020,399 1050,466 1080,425 1110,397 1140,359 1170,355 1200,355 1230,314 1260,278 1290,198 1320,158"/>
		<polyline class="evenEl" points="435,37 465,256 495,335 525,375 555,349 585,378 615,372 645,346 675,506 705,512 735,476 765,445 795,446 825,406 855,399 885,353 915,311 945,311 975,401 1005,404 1035,423 1065,464 1095,404 1125,355 1155,316 1185,316 1215,316 1245,273 1275,234 1305,198"/>
		<polygon  class="areaEl" mask="url(#miharaMask)" points="420,182 435,37 450,79 465,256 480,240 495,335 510,325 525,375 540,323 555,349 570,356 585,378 600,360 615,372 630,367 645,346 660,406 675,506 690,532 705,512 720,501 735,476 750,457 765,445 780,447 795,446 810,441 825,406 840,402 855,399 870,353 885,353 900,360 915,311 930,402 945,311 960,271 975,401 990,401 1005,404 1020,399 1035,423 1050,466 1065,464 1080,425 1095,404 1110,397 1125,355 1140,359 1155,316 1170,355 1185,316 1200,355 1215,316 1230,314 1245,273 1260,278 1275,234 1290,198 1305,198 1320,158    1335,0 435,0 420,178 405,215"/>
	</g>
	<g id="sumoto">
		<marker id="_sumoto" markerUnits="userSpaceOnUse" markerWidth="27" markerHeight="27" viewBox="0 0 2 2" refX="1" refY="1"><use xlink:href="#_marker"/></marker>
		<polyline class="oddEl"  points="480,25 510,83 540,64 570,58 600,95 630,90 660,57 690,131 720,139 750,240 780,133 810,125"/>
		<polyline class="evenEl" points="465,19 495,53 525,75 555,45 585,44 615,78 645,69 675,116 705,139 735,129 765,132 795,127"/>
		<use class="areaEl" xlink:href="#area_sumoto"/>
	</g>
	<g id="shichi">
		<marker id="_shichi" markerUnits="userSpaceOnUse" markerWidth="27" markerHeight="27" viewBox="0 0 2 2" refX="1" refY="1"><use xlink:href="#_marker"/></marker>
		<polyline class="oddEl"  points="840,128 870,163 900,172 930,172 960,169 990,171 1020,168 1050,181 1080,179 1110,152 1140,156 1170,154 1200,115 1230,152 1260,118 1290,119 1320,110"/>
		<polyline class="evenEl" points="825,129 855,125 885,168 915,169 945,165 975,165 1005,176 1035,167 1065,174 1095,168 1125,150 1155,115 1185,119 1215,114 1245,157 1275,117 1305,107"/>
		<use class="areaEl" xlink:href="#area_shichi"/>
	</g>
	<g id="awaji">
		<marker id="_awaji" markerUnits="userSpaceOnUse" markerWidth="27" markerHeight="27" viewBox="0 0 2 2" refX="1" refY="1"><use xlink:href="#_marker"/></marker>
		<polyline class="oddEl"  points="1350,273 1380,278 1410,274 1440,234 1470,230"/>
		<polyline class="evenEl" points="1335,275 1365,237 1395,269 1425,275 1455,231"/>
		<polygon  class="areaEl" points="1335,275 1350,273 1365,237 1380,278 1395,269 1410,274 1425,275 1440,234 1455,231 1470,230     1470,0 1335,0 1320,158"/>
	</g>
</svg>