<svg xmlns="http://www.w3.org/2000/svg" xmlns:xlink="http://www.w3.org/1999/xlink" version="1.1" baseProfile="full" viewBox="0 0 200 200" width="200" height="200">
<g fill="black">
<path d="M 105.4 88.8 L 106.6 92.2 L 101.86748466491699 91.71042947769165 L 100.8 92.6 L 98.5 94.5 L 96.0 96.7 L 93.0 99.3 L 89.6 102.1 L 85.9 105.3 L 81.7 108.8 L 81.47435894012452 109.0 L 146.9 109.0 L 152.9 104.0 L 163.9 113.0 L 158.9 117.0 L 158.9 178.6 L 146.9 184.6 L 146.9 174.6 L 51.1 174.6 L 51.1 181.6 L 39.1 187.6 L 39.1 103.0 L 51.1 109.0 L 77.8617021560669 109.0 L 79.5 106.8 L 82.6 102.3 L 85.4 98.3 L 87.9 94.7 L 90.1 91.5 L 92.0 88.7 L 93.5 86.3 L 94.7 84.3 L 95.5 82.7 L 95.55120706558228 82.55918064117432 L 95.3 82.4 L 95.8 81.7 L 12.0 81.7 L 12.0 77.7 L 74.0 77.7 L 74.0 13.1 L 86.0 15.1 L 89.0 17.1 L 86.0 18.9 L 86.0 77.7 L 111.0 77.7 L 111.0 13.1 L 123.0 15.1 L 126.0 17.1 L 123.0 18.9 L 123.0 77.7 L 166.0 77.7 L 176.0 67.7 L 188.0 77.7 L 188.0 81.7 L 97.11666669845582 81.7 Z M 51.1 113.0 L 51.1 170.6 L 146.9 170.6 L 146.9 113.0 Z M 168.6 28.2 L 170.2 31.5 L 166.32743129730224 31.566768455505372 L 165.9 32.2 L 163.0 36.2 L 160.0 40.3 L 156.7 44.5 L 153.3 48.7 L 149.7 53.1 L 145.8 57.5 L 141.7 61.9 L 137.4 66.3 L 132.7 70.7 L 131.2 69.6 L 134.4 64.0 L 137.5 58.7 L 140.5 53.6 L 143.5 48.6 L 146.3 43.9 L 149.0 39.2 L 151.6 34.8 L 154.0 30.4 L 156.2 26.2 L 157.82203674316406 23.11040620803833 L 157.8 23.1 L 158.8 21.3 Z M 47.1 55.8 L 45.2 51.7 L 43.2 47.5 L 40.9 43.4 L 38.4 39.3 L 35.8 35.2 L 33.0 31.1 L 30.1 26.9 L 27.1 22.5 L 28.3 21.2 L 32.8 24.3 L 36.9 27.6 L 40.8 31.1 L 44.4 34.8 L 47.8 38.6 L 51.0 42.6 L 53.9 46.6 L 56.6 50.8 L 59.1 55.2 L 61.4 59.6 L 61.3 64.2 L 58.1 67.4 L 53.5 67.3 L 50.3 64.1 L 48.8 60.0 Z " />
</g>
</svg>
