<svg xmlns="http://www.w3.org/2000/svg" xmlns:xlink="http://www.w3.org/1999/xlink" version="1.1" baseProfile="full" viewBox="0 0 200 200" width="200" height="200">
<g fill="black">
<path d="M 117.0 176.0 L 137.0 176.0 L 138.2 175.9 L 139.1 175.7 L 140.0 175.4 L 140.4 175.0 L 140.7 174.1 L 140.9 173.2 L 141.0 172.0 L 141.0 83.0 L 120.50597019195557 83.0 L 117.8 87.9 L 113.7 94.6 L 109.1 101.1 L 104.2 107.4 L 98.7 113.5 L 97.2 112.4 L 101.0 105.3 L 104.6 98.3 L 107.9 91.4 L 111.0 84.5 L 113.8 77.7 L 116.2 70.9 L 118.4 64.1 L 120.2 57.3 L 121.7 50.6 L 122.72308435440064 44.802521800994874 L 122.7 44.8 L 123.2 41.9 L 134.6 46.1 L 137.2 48.6 L 133.65249996185304 49.88999996185303 L 132.8 53.3 L 130.5 60.4 L 127.9 67.4 L 124.9 74.3 L 122.58405799865723 79.0 L 164.0 79.0 L 174.0 69.0 L 186.0 79.0 L 186.0 83.0 L 153.0 83.0 L 153.0 172.0 L 152.8 174.5 L 152.4 177.0 L 151.6 179.4 L 150.3 181.7 L 148.7 183.7 L 146.7 185.3 L 144.4 186.6 L 142.0 187.4 L 139.5 187.8 L 137.0 188.0 L 137.0 182.0 L 117.0 179.0 Z M 22.8 152.0 L 31.0 149.35932207107544 L 31.0 52.0 L 43.0 58.0 L 79.0 58.0 L 85.0 53.0 L 96.0 62.0 L 91.0 66.0 L 91.0 161.0 L 79.0 167.0 L 79.0 136.97241382598878 L 73.8 140.2 L 67.9 143.6 L 56.1 149.8 L 50.2 152.7 L 44.4 155.5 L 38.5 158.2 L 32.7 160.8 L 30.825460624694824 161.58927974700927 L 29.9 165.4 L 27.0 163.2 L 20.9 152.7 Z M 43.0 104.0 L 43.0 145.3737705230713 L 52.8 142.0 L 58.9 139.8 L 65.2 137.6 L 71.5 135.3 L 78.0 133.2 L 79.0 132.88181819915772 L 79.0 104.0 Z M 43.0 62.0 L 43.0 100.0 L 79.0 100.0 L 79.0 62.0 Z M 184.0 30.0 L 184.0 34.0 L 20.0 34.0 L 20.0 30.0 L 162.0 30.0 L 172.0 20.0 Z " />
</g>
</svg>
