<svg xmlns="http://www.w3.org/2000/svg" xmlns:xlink="http://www.w3.org/1999/xlink" version="1.1" baseProfile="full" viewBox="0 0 200 200" width="200" height="200">
<g fill="black">
<path d="M 38.4 178.8 L 35.9 178.4 L 33.5 177.6 L 31.2 176.3 L 29.2 174.7 L 27.6 172.7 L 26.3 170.4 L 25.5 168.0 L 25.1 165.5 L 25.0 163.0 L 25.0 55.0 L 37.0 57.0 L 40.0 59.0 L 37.0 60.8 L 37.0 164.2 L 37.2 165.1 L 37.5 166.0 L 37.9 166.4 L 38.8 166.7 L 39.7 166.9 L 41.0 167.0 L 135.0 167.0 L 141.0 142.0 L 143.0 142.0 L 141.0 167.0 L 144.6 169.4 L 147.0 173.0 L 144.6 176.6 L 141.0 179.0 L 41.0 179.0 Z M 104.1 125.0 L 99.6 119.5 L 95.3 113.8 L 91.4 107.9 L 87.7 101.8 L 84.3 95.5 L 81.3 89.0 L 78.7 82.2 L 76.5 75.2 L 78.2 74.5 L 82.1 80.5 L 86.0 86.4 L 90.0 92.1 L 94.0 97.6 L 98.2 102.9 L 102.6 108.0 L 107.2 113.0 L 111.9 117.7 L 113.56295337677003 119.22720203399658 L 118.0 100.0 L 120.0 100.0 L 118.20141639709473 123.3815863609314 L 121.9 126.5 L 123.9 130.6 L 122.4 134.9 L 118.3 136.9 L 114.0 135.4 L 108.9 130.3 Z M 161.4 111.6 L 158.6 105.6 L 155.5 100.1 L 152.2 95.0 L 148.6 90.4 L 144.7 86.1 L 140.6 82.2 L 136.2 78.6 L 131.5 75.2 L 132.2 73.5 L 138.1 75.3 L 143.7 77.8 L 149.0 81.1 L 154.0 85.1 L 158.7 89.6 L 163.1 94.8 L 167.2 100.6 L 171.0 106.9 L 174.5 113.8 L 177.6 121.1 L 177.3 125.7 L 173.9 128.8 L 169.4 128.5 L 166.3 125.1 L 164.0 118.1 Z M 156.2 30.0 L 156.2 34.0 L 23.4 34.0 L 23.4 30.0 L 134.2 30.0 L 144.2 20.0 Z " />
</g>
</svg>
