<svg xmlns="http://www.w3.org/2000/svg" xmlns:xlink="http://www.w3.org/1999/xlink" version="1.1" baseProfile="full" viewBox="0 0 200 200" width="200" height="200">
<g fill="black">
<path d="M 129.3 183.7 L 110.4 182.6 L 94.9 180.8 L 82.4 178.1 L 72.3 174.6 L 64.3 170.3 L 58.2 165.3 L 53.5 159.6 L 51.33011684417725 155.90533409118652 L 49.2 158.1 L 45.9 161.4 L 42.5 164.6 L 39.1 167.6 L 35.7 170.5 L 32.3 173.3 L 28.9 176.0 L 25.6 178.6 L 22.36883964538574 181.04784879684448 L 22.2 185.1 L 18.9 183.5 L 11.0 174.4 L 12.7 173.3 L 16.3 171.5 L 19.9 169.6 L 23.6 167.7 L 27.3 165.7 L 31.1 163.7 L 38.9 159.5 L 41.0 158.4243902206421 L 41.0 109.0 L 14.0 109.0 L 14.0 105.0 L 41.0 105.0 L 47.0 100.0 L 58.0 109.0 L 53.0 113.0 L 53.0 153.70384616851806 L 56.5 156.8 L 61.9 160.7 L 67.9 164.1 L 75.2 166.8 L 84.4 169.0 L 96.2 170.6 L 111.1 171.6 L 129.4 171.9 L 151.8 171.5 L 178.7 170.4 L 190.0 169.9 L 179.2 183.5 L 152.0 184.0 Z M 162.1 158.9 L 160.2 160.4 L 158.3 161.7 L 156.3 162.9 L 154.2 164.0 L 152.1 164.9 L 149.9 165.6 L 147.6 166.2 L 145.3 166.6 L 143.0 166.8 L 140.6 166.9 L 140.6 160.9 L 120.6 157.9 L 120.6 154.9 L 140.6 154.9 L 142.2 154.8 L 143.7 154.7 L 146.5 154.1 L 147.9 153.6 L 149.2 153.1 L 149.22319355010987 153.0875111579895 L 140.7 150.1 L 131.4 146.1 L 126.30888891220093 143.29111108779907 L 122.2 147.4 L 115.8 152.5 L 108.8 156.9 L 101.1 160.8 L 92.7 163.9 L 92.0 162.3 L 99.2 157.4 L 105.8 152.5 L 111.7 147.4 L 116.8 142.0 L 119.25374011993408 138.94645671844484 L 114.5 135.7 L 106.9 129.5 L 106.55368423461914 129.15368423461913 L 106.2 129.6 L 101.5 134.6 L 96.4 139.2 L 90.7 143.5 L 84.5 147.4 L 77.8 150.8 L 70.6 153.8 L 69.7 152.2 L 75.8 147.6 L 81.4 143.0 L 86.6 138.4 L 91.2 133.7 L 95.3 128.9 L 98.8 124.0 L 99.79259452819824 122.36702184677124 L 93.6 114.7 L 89.64749822616577 108.5197244644165 L 88.6 109.8 L 84.7 114.1 L 80.6 118.2 L 76.0 122.1 L 71.2 125.9 L 65.9 129.4 L 60.3 132.7 L 59.2 131.2 L 63.5 126.5 L 67.6 121.9 L 71.4 117.5 L 75.0 113.0 L 78.2 108.6 L 81.2 104.3 L 83.8 99.9 L 86.1 95.5 L 88.2 91.1 L 89.54630870819092 87.61543626785279 L 89.5 87.6 L 90.4 85.4 L 100.9 91.4 L 102.9 94.4 L 98.98229818344116 94.94037265777588 L 98.3 96.2 L 95.4 100.9 L 94.04888887405396 102.8 L 161.9 102.8 L 167.9 97.8 L 178.9 106.8 L 173.9 109.8 L 173.60957775115966 109.92100925445557 L 173.4 113.4 L 172.8 121.0 L 172.1 128.0 L 171.3 134.2 L 170.3 139.8 L 169.277605342865 144.3543035507202 L 172.7 144.7 L 183.3 145.7 L 171.4 157.8 L 164.16834011077881 156.5834590911865 Z M 145.1317072868347 106.8 L 143.4 113.9 L 140.6 121.6 L 137.1 128.8 L 132.9069766998291 135.58870429992675 L 135.5 136.7 L 144.2 139.7 L 153.3 142.0 L 157.30929899215698 142.71745347976685 L 157.6 141.7 L 158.6 137.5 L 159.4 132.4 L 160.2 126.6 L 160.9 120.0 L 161.5 112.6 L 161.7864197731018 106.8 Z M 119.48095235824584 106.8 L 117.1 112.8 L 114.0 118.7 L 110.94150581359864 123.45765762329101 L 111.4 123.8 L 119.1 128.8 L 124.30995092391967 131.60034856796264 L 125.0 130.5 L 128.1 124.3 L 130.6 117.9 L 132.4 111.0 L 133.07741937637329 106.8 Z M 91.37826089859009 106.8 L 96.7 111.9 L 102.74048023223877 117.18542022705078 L 104.4 113.8 L 106.5 108.5 L 106.95945949554444 106.8 Z M 57.3 70.5 L 56.0 66.1 L 58.1 62.1 L 59.3 61.4 L 60.6 60.3 L 62.0 58.7 L 63.3 56.7 L 64.5 54.2 L 65.7 51.3 L 66.7 48.0 L 67.7 44.2 L 68.6 40.0 L 69.0 35.4 L 70.8 35.3 L 71.3 40.0 L 71.62727270126342 42.4 L 115.0 42.4 L 115.0 28.8 L 72.8 28.8 L 72.8 24.8 L 153.9181818008423 24.8 L 162.1 15.8 L 172.1 24.8 L 172.1 28.8 L 127.0 28.8 L 127.0 42.4 L 172.6 42.4 L 178.6 37.4 L 189.6 46.4 L 184.6 49.4 L 181.1315068244934 50.8452054977417 L 178.6 54.1 L 177.1 55.9 L 175.5 57.6 L 172.3 60.8 L 170.5 62.3 L 169.2 64.0 L 167.6 63.1 L 168.6 61.1 L 169.6 56.7 L 170.1 54.6 L 170.7 52.5 L 171.2 50.4 L 171.7 48.2 L 172.12857141494752 46.4 L 127.0 46.4 L 127.0 84.8 L 115.0 90.8 L 115.0 46.4 L 72.04285717010498 46.4 L 72.2 48.6 L 72.2 52.5 L 72.0 56.1 L 71.4 59.6 L 70.6 62.8 L 69.4 65.9 L 67.8 68.7 L 65.8 71.2 L 61.4 72.6 Z M 35.7 77.1 L 33.6 74.5 L 31.4 72.0 L 29.1 69.6 L 26.7 67.2 L 24.1 64.9 L 21.4 62.6 L 18.6 60.2 L 15.5 58.2 L 16.2 56.5 L 19.9 57.6 L 23.5 58.7 L 27.1 60.0 L 30.5 61.6 L 33.8 63.3 L 37.0 65.3 L 40.1 67.4 L 43.1 69.7 L 46.0 72.2 L 48.7 74.8 L 50.0 79.2 L 47.8 83.3 L 43.4 84.5 L 39.4 82.4 L 37.6 79.7 Z M 109.3 77.4 L 109.3 81.4 L 71.3 81.4 L 71.3 77.4 L 91.11818180084228 77.4 L 99.3 68.4 Z M 170.6 77.4 L 170.6 81.4 L 132.6 81.4 L 132.6 77.4 L 152.4181818008423 77.4 L 160.6 68.4 Z M 109.3 60.7 L 109.3 64.7 L 75.0 64.7 L 75.0 60.7 L 95.0777777671814 60.7 L 101.3 53.7 Z M 165.5 60.7 L 165.5 64.7 L 132.6 64.7 L 132.6 60.7 L 151.2777777671814 60.7 L 157.5 53.7 Z M 45.3 41.7 L 43.5 39.1 L 41.6 36.6 L 39.5 34.2 L 37.2 31.7 L 34.8 29.3 L 32.2 26.9 L 29.5 24.4 L 26.4 22.2 L 27.2 20.6 L 30.9 21.9 L 34.5 23.1 L 38.0 24.6 L 41.3 26.3 L 44.5 28.2 L 47.5 30.3 L 50.4 32.5 L 53.2 34.8 L 55.8 37.4 L 58.2 40.1 L 59.1 44.6 L 56.6 48.4 L 52.2 49.3 L 48.3 46.9 L 46.9 44.3 Z " />
</g>
</svg>
