<svg xmlns="http://www.w3.org/2000/svg" xmlns:xlink="http://www.w3.org/1999/xlink" width="1515" height="600" viewBox="-15 0 1515 600">
	<style type="text/css"><![CDATA[
	:not(defs):not(mask) > polygon,
	polyline,
	:not(mask):not(marker) > use {
		transform: translateY(600px)scale(15,-1)translateX(-1920px);
	}
	.area {
		fill: currentColor;
		opacity: .4;
	}
	.odd,
	.even {
		marker-start: var(--marker-url);
		marker-mid:   var(--marker-url);
		marker-end:   var(--marker-url);
		fill: none;
	}
	#odd:not(:target) ~ g .odd,
	#even:not(:target) ~ g .even {
		display: none;
	}

	circle {
		transform-origin: 1px 1px;
		transform: scaleX(calc(1 / 15));
		fill: currentColor;
	}
	path {
		stroke: gray;
		stroke-width: .5px;
		vector-effect: non-scaling-stroke;
	}
	.vLines {
		transform: scale(150,600);
	}
	.hLines {
		transform: scale(1500,100);
	}
	]]></style>

	<view id="odd"></view>
	<view id="even"></view>

	<defs>
		<circle id="marker" cx="1" cy="1" r="0.95" stroke-width="0.1" stroke="white" fill="currentColor"/>
		<polygon id="area_sumoto" points="1951,19 1952,25 1953,53 1954,83 1955,75 1956,64 1957,45 1958,58 1959,44 1960,95 1961,78 1962,90 1963,69 1964,57 1965,116 1966,131 1967,139 1968,139 1969,129 1970,240 1971,132 1972,133 1973,127 1974,125     1975,0 1950,0"/>
		<polygon id="area_shichi" points="1975,129 1976,128 1977,125 1978,163 1979,168 1980,172 1981,169 1982,172 1983,165 1984,169 1985,165 1986,171 1987,176 1988,168 1989,167 1990,181 1991,174 1992,179 1993,168 1994,152 1995,150 1996,156 1997,115 1998,154 1999,119 2000,115 2001,114 2002,152 2003,157 2004,118 2005,117 2006,119 2007,107 2008,110     2009,0 1975,0 1974,125"/>
		<mask id="miharaMask">
			<rect x="0" y="0" width="3000" height="600" fill="white"/>
			<use xlink:href="#area_sumoto"/>
			<use xlink:href="#area_shichi"/>
		</mask>
	</defs>

	<path class="vLines" d="M0 0v1M1 0v1M2 0v1M3 0v1M4 0v1M5 0v1M6 0v1M7 0v1M8 0v1M9 0v1"/>
	<path class="hLines" d="M0 0h1M0 1h1M0 2h1M0 3h1M0 4h1M0 5h1M0 6h1"/>

	<g color="lightsalmon" style="--marker-url: url(#shinnyo)">
		<polygon  class="area" points="1921,22 1922,15 1923,15 1924,23 1925,33 1926,18 1927,17 1928,18 1929,41 1930,50 1931,47 1932,30 1933,36 1934,43 1935,61 1936,37 1937,63 1938,73 1939,63 1940,84 1941,94 1942,109 1943,107     1944,0 1920,0"/>
		<polyline class="odd"  points="1922,15 1924,23 1926,18 1928,18 1930,50 1932,30 1934,43 1936,37 1938,73 1940,84 1942,109"/>
		<polyline class="even" points="1921,22 1923,15 1925,33 1927,17 1929,41 1931,47 1933,36 1935,61 1937,63 1939,63 1941,94 1943,107"/>
		<marker id="shinnyo" markerUnits="userSpaceOnUse" markerWidth="28" markerHeight="28" viewBox="0 0 2 2" refX="1" refY="1"><use xlink:href="#marker"/></marker>
	</g>
	<g color="gold" style="--marker-url: url(#kojo)">
		<polygon  class="area" points="1944,110 1945,93 1946,24 1947,215 1948,178     1949,0 1944,0 1943,107"/>
		<polyline class="odd"  points="1944,110 1946,24 1948,178"/>
		<polyline class="even" points="1945,93 1947,215"/>
		<marker id="kojo" markerUnits="userSpaceOnUse" markerWidth="28" markerHeight="28" viewBox="0 0 2 2" refX="1" refY="1"><use xlink:href="#marker"/></marker>
	</g>
	<g color="rgb(0, 86, 56)" style="--marker-url: url(#mihara)">
		<polygon  class="area" mask="url(#miharaMask)" points="1948,182 1949,37 1950,79 1951,256 1952,240 1953,335 1954,325 1955,375 1956,323 1957,349 1958,356 1959,378 1960,360 1961,372 1962,367 1963,346 1964,406 1965,506 1966,532 1967,512 1968,501 1969,476 1970,457 1971,445 1972,447 1973,446 1974,441 1975,406 1976,402 1977,399 1978,353 1979,353 1980,360 1981,311 1982,402 1983,311 1984,271 1985,401 1986,401 1987,404 1988,399 1989,423 1990,466 1991,464 1992,425 1993,404 1994,397 1995,355 1996,359 1997,316 1998,355 1999,316 2000,355 2001,316 2002,314 2003,273 2004,278 2005,234 2006,198 2007,198 2008,158     2009,0 1949,0 1948,178 1947,215"/>
		<polyline class="odd"  points="1948,182 1950,79 1952,240 1954,325 1956,323 1958,356 1960,360 1962,367 1964,406 1966,532 1968,501 1970,457 1972,447 1974,441 1976,402 1978,353 1980,360 1982,402 1984,271 1986,401 1988,399 1990,466 1992,425 1994,397 1996,359 1998,355 2000,355 2002,314 2004,278 2006,198 2008,158"/>
		<polyline class="even" points="1949,37 1951,256 1953,335 1955,375 1957,349 1959,378 1961,372 1963,346 1965,506 1967,512 1969,476 1971,445 1973,446 1975,406 1977,399 1979,353 1981,311 1983,311 1985,401 1987,404 1989,423 1991,464 1993,404 1995,355 1997,316 1999,316 2001,316 2003,273 2005,234 2007,198"/>
		<marker id="mihara" markerUnits="userSpaceOnUse" markerWidth="28" markerHeight="28" viewBox="0 0 2 2" refX="1" refY="1"><use xlink:href="#marker"/></marker>
	</g>
	<g color="dodgerblue" style="--marker-url: url(#sumoto)">
		<use class="area" xlink:href="#area_sumoto"/>
		<polyline class="odd"  points="1952,25 1954,83 1956,64 1958,58 1960,95 1962,90 1964,57 1966,131 1968,139 1970,240 1972,133 1974,125"/>
		<polyline class="even" points="1951,19 1953,53 1955,75 1957,45 1959,44 1961,78 1963,69 1965,116 1967,139 1969,129 1971,132 1973,127"/>
		<marker id="sumoto" markerUnits="userSpaceOnUse" markerWidth="28" markerHeight="28" viewBox="0 0 2 2" refX="1" refY="1"><use xlink:href="#marker"/></marker>
	</g>
	<g color="limegreen" style="--marker-url: url(#shichi)">
		<use class="area" xlink:href="#area_shichi"/>
		<polyline class="odd"  points="1976,128 1978,163 1980,172 1982,172 1984,169 1986,171 1988,168 1990,181 1992,179 1994,152 1996,156 1998,154 2000,115 2002,152 2004,118 2006,119 2008,110"/>
		<polyline class="even" points="1975,129 1977,125 1979,168 1981,169 1983,165 1985,165 1987,176 1989,167 1991,174 1993,168 1995,150 1997,115 1999,119 2001,114 2003,157 2005,117 2007,107"/>
		<marker id="shichi" markerUnits="userSpaceOnUse" markerWidth="28" markerHeight="28" viewBox="0 0 2 2" refX="1" refY="1"><use xlink:href="#marker"/></marker>
	</g>
	<g color="darkcyan" style="--marker-url: url(#awaji)">
		<polygon  class="area" points="2009,275 2010,273 2011,237 2012,278 2013,269 2014,274 2015,275 2016,234 2017,231 2018,230 2019,233     2019,0 2009,0 2008,158"/>
		<polyline class="odd"  points="2010,273 2012,278 2014,274 2016,234 2018,230"/>
		<polyline class="even" points="2009,275 2011,237 2013,269 2015,275 2017,231 2019,233"/>
		<marker id="awaji" markerUnits="userSpaceOnUse" markerWidth="28" markerHeight="28" viewBox="0 0 2 2" refX="1" refY="1"><use xlink:href="#marker"/></marker>
	</g>
</svg>