<svg xmlns="http://www.w3.org/2000/svg" xmlns:xlink="http://www.w3.org/1999/xlink" version="1.1" baseProfile="full" viewBox="0 0 200 200" width="200" height="200">
<g fill="black">
<path d="M 171.0 28.0 L 171.0 32.0 L 106.0 32.0 L 106.0 111.0 L 160.0 111.0 L 170.0 101.0 L 182.0 111.0 L 182.0 115.0 L 106.0 115.0 L 106.0 182.0 L 94.0 188.0 L 94.0 115.0 L 18.0 115.0 L 18.0 111.0 L 94.0 111.0 L 94.0 32.0 L 29.0 32.0 L 29.0 28.0 L 149.0 28.0 L 159.0 18.0 Z M 76.0 51.3 L 78.0 54.3 L 74.1 54.837931060791014 L 73.1 56.7 L 69.8 61.9 L 66.2 67.0 L 62.2 71.9 L 57.8 76.7 L 53.1 81.3 L 48.1 85.7 L 42.6 90.0 L 36.8 94.0 L 30.5 97.7 L 29.4 96.2 L 34.4 91.0 L 39.1 86.0 L 43.5 81.0 L 47.6 76.1 L 51.4 71.2 L 54.8 66.3 L 57.9 61.3 L 60.6 56.4 L 63.0 51.4 L 64.71915254592895 47.30677967071533 L 64.7 47.3 L 65.6 45.2 Z M 152.9 84.4 L 150.8 80.3 L 148.2 76.1 L 145.4 71.9 L 142.2 67.6 L 138.6 63.2 L 134.7 58.7 L 130.6 54.1 L 126.2 49.3 L 127.3 47.9 L 133.0 51.2 L 138.3 54.8 L 143.2 58.5 L 147.7 62.4 L 151.9 66.4 L 155.6 70.5 L 159.1 74.7 L 162.2 79.0 L 164.9 83.4 L 167.3 87.9 L 167.3 92.4 L 164.1 95.7 L 159.5 95.7 L 156.3 92.5 L 154.8 88.5 Z " />
</g>
</svg>
