<svg xmlns="http://www.w3.org/2000/svg" xmlns:xlink="http://www.w3.org/1999/xlink" version="1.1" baseProfile="full" viewBox="0 0 200 200" width="200" height="200">
<g fill="black">
<path d="M 78.5 125.6 L 76.5 122.7 L 74.3 119.7 L 71.7 116.7 L 68.8 113.7 L 65.7 110.7 L 62.2 107.6 L 59.2 104.9333333015442 L 59.2 183.0 L 47.2 189.0 L 47.2 108.05882349014283 L 39.9 114.5 L 30.8 121.6 L 21.2 128.4 L 10.9 134.7 L 9.9 133.2 L 18.9 125.3 L 27.4 117.5 L 35.4 109.6 L 43.0 101.7 L 50.0 93.6 L 56.5 85.4 L 62.5 77.1 L 67.9 68.6 L 72.8 60.0 L 74.8 56.0 L 15.2 56.0 L 15.2 52.0 L 47.2 52.0 L 47.2 12.0 L 59.2 14.0 L 62.2 16.0 L 59.2 17.8 L 59.2 52.0 L 76.6 52.0 L 76.94285717010499 51.71428575515747 L 77.2 51.2 L 77.42344827651978 51.313793087005614 L 82.6 47.0 L 93.6 56.0 L 88.6 59.0 L 86.01006135940551 60.07914113998413 L 82.7 65.7 L 76.9 74.5 L 70.6 83.0 L 63.7 91.3 L 58.42749996185303 97.0 L 59.2 97.0 L 59.2 101.07346935272217 L 60.3 101.5 L 64.9 103.5 L 69.2 105.7 L 73.3 108.1 L 77.0 110.6 L 80.6 113.3 L 83.8 116.1 L 86.8 119.0 L 89.5 122.1 L 92.0 125.3 L 92.5 129.9 L 89.8 133.5 L 85.3 134.1 L 81.6 131.4 L 80.2 128.5 Z M 179.7 142.0 L 181.7 142.0 L 179.7 167.0 L 183.2 169.4 L 185.7 173.0 L 183.2 176.6 L 179.7 179.0 L 117.3 179.0 L 114.7 178.8 L 112.2 178.4 L 109.8 177.6 L 107.5 176.3 L 105.5 174.7 L 103.9 172.7 L 102.7 170.4 L 101.9 168.0 L 101.4 165.5 L 101.3 163.0 L 101.3 81.0 L 113.3 87.0 L 162.1 87.0 L 162.1 32.0 L 98.6 32.0 L 98.6 28.0 L 162.1 28.0 L 168.1 23.0 L 179.1 32.0 L 174.1 36.0 L 174.1 97.0 L 162.1 103.0 L 162.1 91.0 L 113.3 91.0 L 113.3 164.2 L 113.5 165.1 L 113.7 165.7 L 113.9 166.0 L 114.0 166.2 L 114.2 166.4 L 115.1 166.7 L 116.0 166.9 L 117.3 167.0 L 173.7 167.0 Z " />
</g>
</svg>
