<svg xmlns="http://www.w3.org/2000/svg" xmlns:xlink="http://www.w3.org/1999/xlink" version="1.1" baseProfile="full" viewBox="0 0 200 200" width="200" height="200">
<g fill="black">
<path d="M 139.0 174.0 L 153.0 174.0 L 154.2 173.9 L 155.1 173.7 L 156.0 173.4 L 156.4 173.0 L 156.7 172.1 L 156.9 171.2 L 157.0 170.0 L 157.0 64.0 L 105.0 64.0 L 105.0 181.0 L 93.0 187.0 L 93.0 64.0 L 42.0 64.0 L 42.0 183.0 L 30.0 189.0 L 30.0 54.0 L 42.0 60.0 L 93.0 60.0 L 93.0 34.0 L 18.0 34.0 L 18.0 30.0 L 161.0 30.0 L 171.0 20.0 L 183.0 30.0 L 183.0 34.0 L 105.0 34.0 L 105.0 60.0 L 157.0 60.0 L 163.0 55.0 L 174.0 64.0 L 169.0 68.0 L 169.0 170.0 L 168.8 172.5 L 168.4 175.0 L 167.6 177.4 L 166.3 179.7 L 164.7 181.7 L 162.7 183.3 L 160.4 184.6 L 158.0 185.4 L 155.5 185.8 L 153.0 186.0 L 153.0 180.0 L 139.0 177.0 Z M 72.94208145141602 80.75475111007691 L 72.6 86.0 L 71.6 94.8 L 70.0 103.1 L 68.25430088043213 109.6671537399292 L 68.3 109.7 L 71.6 112.0 L 74.6 114.7 L 77.4 117.5 L 80.0 120.5 L 82.5 123.6 L 84.8 126.9 L 87.0 130.4 L 88.9 134.0 L 90.7 137.8 L 90.4 142.3 L 87.0 145.4 L 82.5 145.1 L 79.4 141.7 L 78.5 138.2 L 77.4 134.8 L 76.2 131.4 L 74.9 128.1 L 73.4 124.8 L 71.8 121.5 L 70.0 118.3 L 68.1 115.1 L 67.06150560379028 113.38648414611816 L 65.3 118.4 L 62.2 125.2 L 58.5 131.6 L 54.3 137.3 L 49.6 142.4 L 44.3 146.8 L 43.0 145.5 L 46.6 140.0 L 49.9 134.3 L 52.8 128.4 L 55.2 122.2 L 57.3 115.6 L 58.9 108.7 L 60.1 101.3 L 60.9 93.6 L 61.2 85.4 L 61.2 74.3 L 73.2 76.8 L 76.2 78.8 Z M 136.94208145141602 80.75475111007691 L 136.6 86.0 L 135.6 94.8 L 134.0 103.1 L 132.25430088043214 109.6671537399292 L 132.3 109.7 L 135.6 112.0 L 138.6 114.7 L 141.4 117.5 L 144.0 120.5 L 146.5 123.6 L 148.8 126.9 L 151.0 130.4 L 152.9 134.0 L 154.7 137.8 L 154.4 142.3 L 151.0 145.4 L 146.5 145.1 L 143.4 141.7 L 142.5 138.2 L 141.4 134.8 L 140.2 131.4 L 138.9 128.1 L 137.4 124.8 L 135.8 121.5 L 134.0 118.3 L 132.1 115.1 L 131.0615056037903 113.38648414611816 L 129.3 118.4 L 126.2 125.2 L 122.5 131.6 L 118.3 137.3 L 113.6 142.4 L 108.3 146.8 L 107.0 145.5 L 110.6 140.0 L 113.9 134.3 L 116.8 128.4 L 119.2 122.2 L 121.3 115.6 L 122.9 108.7 L 124.1 101.3 L 124.9 93.6 L 125.2 85.4 L 125.2 74.3 L 137.2 76.8 L 140.2 78.8 Z " />
</g>
</svg>
