<svg xmlns="http://www.w3.org/2000/svg" xmlns:xlink="http://www.w3.org/1999/xlink" version="1.1" baseProfile="full" viewBox="0 0 200 200" width="200" height="200">
<g fill="black">
<path d="M 140.9 178.4 L 160.9 178.4 L 162.2 178.3 L 163.1 178.2 L 163.7 178.0 L 164.0 177.8 L 164.2 177.7 L 164.5 177.1 L 164.7 176.5 L 164.9 175.6 L 164.9 39.4 L 84.3 39.4 L 84.3 35.4 L 164.9 35.4 L 170.9 30.4 L 181.9 39.4 L 176.9 43.4 L 176.9 174.4 L 176.8 177.0 L 176.4 179.5 L 175.6 181.9 L 174.3 184.1 L 172.7 186.1 L 170.7 187.8 L 168.4 189.0 L 166.0 189.8 L 163.5 190.3 L 160.9 190.4 L 160.9 184.4 L 140.9 181.4 Z M 68.5 126.2 L 66.9 123.3 L 65.1 120.4 L 63.0 117.5 L 60.6 114.5 L 58.0 111.5 L 55.2 108.4 L 53.6 106.74666662216187 L 53.6 184.0 L 41.6 190.0 L 41.6 110.33378381729126 L 36.7 115.3 L 28.8 122.5 L 20.4 129.3 L 11.5 135.6 L 10.3 134.3 L 17.9 126.4 L 25.1 118.6 L 31.9 110.8 L 38.3 102.9 L 41.6 98.42542371749877 L 41.6 98.0 L 41.91374998092651 98.0 L 44.2 94.9 L 49.7 86.7 L 54.8 78.4 L 59.4 69.9 L 63.6 61.3 L 65.47816095352172 57.0 L 15.0 57.0 L 15.0 53.0 L 41.6 53.0 L 41.6 13.0 L 53.6 15.0 L 56.6 17.0 L 53.6 18.8 L 53.6 53.0 L 66.9 53.0 L 72.9 48.0 L 83.9 57.0 L 78.9 60.0 L 76.53758697509765 60.98433876037598 L 73.8 66.4 L 68.8 75.2 L 63.3 83.7 L 57.4 92.0 L 52.525 98.0 L 53.6 98.0 L 53.6 102.55714282989501 L 53.9 102.7 L 58.0 104.7 L 61.8 107.0 L 65.3 109.3 L 68.7 111.9 L 71.7 114.5 L 74.6 117.4 L 77.2 120.3 L 79.6 123.4 L 81.8 126.6 L 82.0 131.2 L 79.1 134.6 L 74.5 134.9 L 71.0 131.9 L 69.9 129.1 Z M 106.9 89.1 L 133.0 89.1 L 139.0 84.1 L 150.0 93.1 L 145.0 97.1 L 145.0 149.4 L 133.0 155.4 L 133.0 143.4 L 106.9 143.4 L 106.9 155.4 L 94.9 161.4 L 94.9 83.1 Z M 106.9 93.1 L 106.9 139.4 L 133.0 139.4 L 133.0 93.1 Z M 158.4 64.0 L 158.4 68.0 L 86.4 68.0 L 86.4 64.0 L 136.4 64.0 L 146.4 54.0 Z " />
</g>
</svg>
