<svg xmlns="http://www.w3.org/2000/svg" xmlns:xlink="http://www.w3.org/1999/xlink" version="1.1" baseProfile="full" viewBox="0 0 200 200" width="200" height="200">
<g fill="black">
<path d="M 12.5 186.8 L 11.4 182.3 L 13.6 178.4 L 15.7 177.1 L 17.6 175.6 L 19.5 173.8 L 21.2 171.7 L 22.9 169.3 L 24.4 166.5 L 25.9 163.4 L 27.2 159.9 L 28.4 156.1 L 29.2 151.9 L 31.0 152.0 L 31.2 156.4 L 31.5 160.6 L 31.4 164.6 L 30.9 168.5 L 30.1 172.2 L 28.9 175.8 L 27.4 179.1 L 25.6 182.3 L 23.4 185.2 L 20.9 187.9 L 16.4 189.0 Z M 176.4 121.0 L 171.4 124.0 L 169.1907646179199 124.92051477432251 L 152.7 182.5 L 139.5 184.8 L 158.5042552947998 121.0 L 102.0 121.0 L 102.0 117.0 L 159.4 117.0 L 165.4 112.0 Z M 60.8 166.6 L 60.5 163.9 L 60.0 161.3 L 59.5 158.6 L 58.3 153.4 L 57.5 150.7 L 56.3 148.3 L 57.8 147.2 L 59.7 149.4 L 61.8 151.4 L 63.7 153.6 L 65.4 156.0 L 67.1 158.6 L 68.5 161.2 L 69.9 164.0 L 71.1 167.0 L 72.1 170.0 L 73.1 173.1 L 71.9 177.5 L 68.0 179.9 L 63.6 178.7 L 61.2 174.8 L 61.2 172.0 Z M 45.7 183.9 L 41.9 181.3 L 41.0 176.8 L 41.8 174.5 L 42.4 172.1 L 42.9 169.5 L 43.3 166.9 L 43.4 164.3 L 43.5 161.5 L 43.3 158.6 L 43.0 155.5 L 42.6 152.4 L 41.7 149.2 L 43.3 148.5 L 45.0 151.4 L 46.9 154.2 L 48.5 157.1 L 49.8 160.1 L 50.9 163.1 L 51.8 166.2 L 52.4 169.4 L 52.8 172.6 L 52.9 175.9 L 52.8 179.2 L 50.2 183.0 Z M 79.3 166.3 L 78.8 163.4 L 78.2 160.6 L 77.4 157.9 L 76.4 155.1 L 75.4 152.4 L 74.1 149.7 L 72.8 146.8 L 71.0 144.3 L 72.3 143.0 L 74.8 145.1 L 77.5 147.1 L 79.9 149.3 L 82.1 151.8 L 84.2 154.4 L 86.0 157.2 L 87.7 160.2 L 89.2 163.3 L 90.5 166.5 L 91.6 169.9 L 90.6 174.4 L 86.8 176.9 L 82.3 175.9 L 79.8 172.1 L 79.6 169.1 Z M 166.5 88.4 L 161.2 82.4 L 156.1 75.8 L 151.3 68.6 L 146.8 60.8 L 142.6 52.4 L 138.7 43.3 L 135.2 33.6 L 135.109375 33.275 L 132.7 39.7 L 128.5 49.7 L 123.9 59.4 L 118.9 68.6 L 113.6 77.5 L 107.9 86.0 L 101.8 94.0 L 95.3 101.5 L 88.3 108.5 L 86.9 107.4 L 87.16341466903687 107.0 L 58.3 107.0 L 58.3 125.88928575515747 L 66.6 125.0 L 75.4 124.1 L 84.4 123.5 L 93.8 123.1 L 94.0 124.8 L 85.0 127.2 L 76.2 129.4 L 67.7 131.5 L 59.5 133.4 L 51.6 135.3 L 43.9 137.2 L 36.6 139.0 L 29.6 140.9 L 22.8 142.7 L 20.324961566925047 143.39610452651976 L 19.0 147.0 L 16.4 144.5 L 11.6 133.4 L 13.6 132.9 L 20.3 131.6 L 27.3 130.4 L 34.6 129.2 L 42.2 128.1 L 46.3 127.52179489135742 L 46.3 107.0 L 20.8 107.0 L 20.8 103.0 L 46.3 103.0 L 46.3 79.0 L 30.2 79.0 L 30.2 86.0 L 18.2 92.0 L 18.2 15.0 L 30.2 21.0 L 74.3 21.0 L 80.3 16.0 L 91.3 25.0 L 86.3 29.0 L 86.3 83.0 L 74.3 89.0 L 74.3 79.0 L 58.3 79.0 L 58.3 103.0 L 66.0 103.0 L 76.0 93.0 L 88.0 103.0 L 88.0 105.72962961196899 L 92.3 99.2 L 97.4 90.9 L 102.4 82.5 L 107.0 73.7 L 111.4 64.8 L 115.5 55.5 L 119.2 45.9 L 122.7 36.0 L 125.8 25.8 L 128.6 15.3 L 128.66444444656372 15.317777824401855 L 129.1 13.7 L 140.2 18.5 L 142.5 21.3 L 138.94967317581177 22.250980377197266 L 137.00609760284425 28.081707286834718 L 139.1 31.9 L 144.0 40.7 L 149.0 48.9 L 154.0 56.4 L 159.0 63.3 L 164.1 69.4 L 169.3 74.9 L 174.6 79.8 L 179.9 83.9 L 185.3 87.4 L 189.1 89.9 L 178.1 98.5 L 172.1 93.7 Z M 157.7 87.0 L 157.7 91.0 L 112.6 91.0 L 112.6 87.0 L 139.51818180084229 87.0 L 147.7 78.0 Z M 30.2 52.0 L 30.2 75.0 L 46.3 75.0 L 46.3 52.0 Z M 58.3 52.0 L 58.3 75.0 L 74.3 75.0 L 74.3 52.0 Z M 30.2 25.0 L 30.2 48.0 L 46.3 48.0 L 46.3 25.0 Z M 58.3 25.0 L 58.3 48.0 L 74.3 48.0 L 74.3 25.0 Z " />
</g>
</svg>
