<svg xmlns="http://www.w3.org/2000/svg" xmlns:xlink="http://www.w3.org/1999/xlink" version="1.1" baseProfile="full" viewBox="0 0 200 200" width="200" height="200">
<g fill="black">
<path d="M 56.8 103.5 L 55.7 101.2 L 54.5 99.0 L 53.1 96.8 L 51.5 94.6 L 49.9 92.5 L 47.9 90.18421049118042 L 47.9 182.0 L 35.9 188.0 L 35.9 99.78666667938232 L 33.3 107.5 L 30.0 116.0 L 26.3 124.4 L 22.4 132.4 L 18.1 140.1 L 13.3 147.4 L 11.7 146.5 L 14.6 138.4 L 17.5 130.2 L 20.2 122.0 L 22.8 113.5 L 25.2 104.9 L 27.3 96.1 L 29.3 87.2 L 31.0 78.0 L 32.5 68.6 L 33.344186019897464 62.0 L 12.5 62.0 L 12.5 58.0 L 35.9 58.0 L 35.9 13.0 L 47.9 15.0 L 50.9 17.0 L 47.9 18.8 L 47.9 58.0 L 50.918181800842284 58.0 L 59.1 49.0 L 69.1 58.0 L 69.1 62.0 L 47.9 62.0 L 47.9 86.05172414779663 L 50.4 87.0 L 53.2 88.3 L 55.8 89.8 L 58.4 91.5 L 60.8 93.4 L 63.1 95.4 L 65.3 97.6 L 67.4 100.0 L 69.3 102.5 L 69.7 107.0 L 66.8 110.6 L 62.3 111.0 L 58.7 108.2 L 57.8 105.8 Z M 96.2 181.7 L 84.2 187.7 L 84.2 114.01132078170777 L 79.5 118.8 L 73.9 124.0 L 67.8 128.9 L 61.4 133.5 L 60.2 132.1 L 65.2 126.2 L 70.0 120.3 L 74.6 114.5 L 78.9 108.6 L 82.9 102.7 L 84.2 100.64736843109131 L 84.2 94.2 L 87.25194807052613 95.72597398757935 L 90.1 90.7 L 93.3 84.6 L 96.1 78.4 L 98.6 72.1 L 98.67231273651123 72.13127031326295 L 99.2 70.9 L 109.7 76.9 L 111.6 79.9 L 107.85589866638183 80.42548789978028 L 106.3 83.4 L 102.7 89.8 L 98.7 96.0 L 95.82453985214234 100.01226997375488 L 96.2 100.2 L 160.3 100.2 L 170.3 90.2 L 182.3 100.2 L 182.3 104.2 L 140.0 104.2 L 140.0 124.8 L 158.8181818008423 124.8 L 167.0 115.8 L 177.0 124.8 L 177.0 128.8 L 140.0 128.8 L 140.0 148.7 L 155.0 148.7 L 165.0 138.7 L 177.0 148.7 L 177.0 152.7 L 140.0 152.7 L 140.0 174.7 L 165.6 174.7 L 175.6 164.7 L 187.6 174.7 L 187.6 178.7 L 96.2 178.7 Z M 96.2 152.7 L 96.2 174.7 L 128.0 174.7 L 128.0 152.7 Z M 96.2 128.8 L 96.2 148.7 L 128.0 148.7 L 128.0 128.8 Z M 96.2 104.2 L 96.2 124.8 L 128.0 124.8 L 128.0 104.2 Z M 133.7 92.0 L 133.0 89.9 L 132.2 87.9 L 131.3 85.8 L 129.1 81.8 L 127.8 79.9 L 126.4 77.8 L 124.5 76.2 L 125.5 74.7 L 127.8 75.9 L 130.2 76.9 L 132.6 78.1 L 134.8 79.5 L 136.9 81.2 L 139.0 83.0 L 140.9 84.9 L 142.7 87.1 L 144.4 89.4 L 146.0 91.8 L 145.9 96.4 L 142.7 99.6 L 138.1 99.6 L 134.9 96.4 L 134.4 94.2 Z M 116.8 55.6 L 117.8 59.1 L 113.7964859008789 58.40973892211914 L 113.7 58.5 L 110.3 61.4 L 106.6 64.1 L 102.5 66.8 L 98.2 69.4 L 93.5 71.9 L 88.5 74.4 L 83.2 76.7 L 77.4 78.8 L 71.3 80.8 L 70.6 79.1 L 75.7 75.5 L 80.6 72.0 L 85.2 68.7 L 89.5 65.5 L 93.4 62.4 L 97.0 59.3 L 100.2 56.3 L 103.1 53.4 L 105.6 50.6 L 107.1952314376831 48.56970548629761 L 107.1 48.5 L 108.1 47.3 Z M 158.7 65.7 L 156.0 63.4 L 150.4 58.8 L 147.5 56.6 L 144.6 54.3 L 141.5 52.2 L 142.2 50.5 L 145.9 51.6 L 149.6 52.6 L 153.2 53.8 L 156.8 55.2 L 160.2 56.7 L 163.6 58.4 L 167.0 60.2 L 170.3 62.2 L 173.5 64.3 L 176.6 66.5 L 178.6 70.6 L 177.2 74.9 L 173.1 76.9 L 168.7 75.5 L 163.9 70.5 Z M 186.0 42.0 L 186.0 46.0 L 69.0 46.0 L 69.0 42.0 L 164.0 42.0 L 174.0 32.0 Z M 124.4 28.7 L 124.1 27.3 L 123.6 25.8 L 122.8 24.1 L 121.8 22.3 L 120.5 20.3 L 119.1 18.3 L 117.4 16.1 L 115.3 14.3 L 116.3 12.8 L 118.8 14.3 L 121.4 15.4 L 123.8 16.6 L 126.0 17.8 L 128.1 19.2 L 130.0 20.6 L 131.7 22.1 L 133.3 23.7 L 134.7 25.4 L 135.8 27.4 L 135.3 31.9 L 131.8 34.8 L 127.3 34.3 L 124.3 30.8 L 124.5 29.8 Z " />
</g>
</svg>
